<svg width="912" height="688" viewBox="0 0 912 688" fill="none" xmlns="http://www.w3.org/2000/svg">
<path d="M71 35.0221H812C849.555 35.0221 880 65.4667 880 103.022V617.522C880 655.077 849.555 685.522 812 685.522H71C33.4446 685.522 3 655.077 3 617.522V103.022C3.00001 65.4667 33.4446 35.0221 71 35.0221Z" fill="url(#paint0_linear_248_765)" stroke="url(#paint1_linear_248_765)" stroke-width="4"/>
<rect x="487.436" y="78.0221" width="358" height="402" rx="44" transform="rotate(9.07928 487.436 78.0221)" fill="white"/>
<g filter="url(#filter0_d_248_765)">
<rect x="203" y="94.9432" width="358" height="402" rx="44" transform="rotate(-13.5573 203 94.9432)" fill="white"/>
</g>
<path d="M70 111.522H350.485C360.49 111.522 370.374 113.714 379.441 117.943L538.538 192.15C548.002 196.564 558.319 198.852 568.762 198.852H842C879.831 198.852 910.5 229.521 910.5 267.352V617.022C910.5 654.854 879.832 685.522 842 685.522H70C32.1685 685.522 1.5 654.854 1.5 617.022V180.022C1.5 142.191 32.1685 111.522 70 111.522Z" fill="#D9D9D9" stroke="url(#paint2_linear_248_765)" stroke-width="3"/>
<text x="760" y="625" text-anchor="middle" fill="black" font-size="62" font-family="sans-serif" font-weight="600">folder</text>
<defs>
<filter id="filter0_d_248_765" x="167.978" y="-2.28882e-05" width="538.304" height="570.764" filterUnits="userSpaceOnUse" color-interpolation-filters="sRGB">
<feFlood flood-opacity="0" result="BackgroundImageFix"/>
<feColorMatrix in="SourceAlpha" type="matrix" values="0 0 0 0 0 0 0 0 0 0 0 0 0 0 0 0 0 0 127 0" result="hardAlpha"/>
<feMorphology radius="21" operator="dilate" in="SourceAlpha" result="effect1_dropShadow_248_765"/>
<feOffset dx="13" dy="37"/>
<feGaussianBlur stdDeviation="18.05"/>
<feComposite in2="hardAlpha" operator="out"/>
<feColorMatrix type="matrix" values="0 0 0 0 0 0 0 0 0 0 0 0 0 0 0 0 0 0 0.21 0"/>
<feBlend mode="normal" in2="BackgroundImageFix" result="effect1_dropShadow_248_765"/>
<feBlend mode="normal" in="SourceGraphic" in2="effect1_dropShadow_248_765" result="shape"/>
</filter>
<linearGradient id="paint0_linear_248_765" x1="237" y1="-142.478" x2="414.5" y2="660.522" gradientUnits="userSpaceOnUse">
<stop stop-color="#D9D9D9"/>
<stop offset="1" stop-color="#040202"/>
</linearGradient>
<linearGradient id="paint1_linear_248_765" x1="747" y1="-32.9779" x2="441.5" y2="687.522" gradientUnits="userSpaceOnUse">
<stop/>
<stop offset="1" stop-color="white"/>
</linearGradient>
<linearGradient id="paint2_linear_248_765" x1="41.8776" y1="-8.2417" x2="471.523" y2="677.293" gradientUnits="userSpaceOnUse">
<stop stop-color="#414141"/>
<stop offset="1" stop-color="white"/>
</linearGradient>
</defs>
</svg>
