<svg width="267" height="324" viewBox="0 0 267 324" fill="none" xmlns="http://www.w3.org/2000/svg">
<path d="M13 323V0.5H184L255 62V323H13Z" fill="white" stroke="#F7F8F9"/>
<path d="M185 61.5V0.5L255 61.5H185Z" fill="#D9D9D9"/>
<line x1="35" y1="28.5" x2="162" y2="28.5" stroke="#DADADA" stroke-width="4"/>
<line x1="35" y1="54.5" x2="162" y2="54.5" stroke="#DADADA" stroke-width="4"/>
<line x1="34.9895" y1="84.5" x2="224.989" y2="83.5" stroke="#DADADA" stroke-width="4"/>
<line x1="34.9895" y1="113.5" x2="224.989" y2="112.5" stroke="#DADADA" stroke-width="4"/>
<line x1="34.9895" y1="242.5" x2="224.989" y2="241.5" stroke="#DADADA" stroke-width="4"/>
<line x1="34.9895" y1="272.5" x2="224.989" y2="271.5" stroke="#DADADA" stroke-width="4"/>
<line x1="34.9895" y1="302.5" x2="224.989" y2="301.5" stroke="#DADADA" stroke-width="4"/>
<path d="M267 121.5H0V237.5H267V121.5Z" fill="#E91B2D"/>
<path d="M99.872 166.796C99.872 170.977 98.3787 174.583 95.392 177.612C92.4053 180.599 88.8213 182.092 84.64 182.092H68.192V199.5H63.84V151.5H84.64C88.8213 151.5 92.4053 152.993 95.392 155.98C98.3787 158.967 99.872 162.572 99.872 166.796ZM92.256 174.54C94.3467 172.407 95.392 169.825 95.392 166.796C95.392 163.767 94.3467 161.185 92.256 159.052C90.1653 156.919 87.6267 155.852 84.64 155.852H68.192V177.74H84.64C87.6267 177.74 90.1653 176.673 92.256 174.54ZM148.909 158.54C153.602 163.233 155.949 168.887 155.949 175.5C155.949 182.113 153.602 187.767 148.909 192.46C144.216 197.153 138.562 199.5 131.949 199.5H115.565V151.5H131.949C138.562 151.5 144.216 153.847 148.909 158.54ZM151.469 175.5C151.469 170.039 149.57 165.409 145.773 161.612C141.976 157.772 137.368 155.852 131.949 155.852H119.917V195.148H131.949C137.368 195.148 141.976 193.228 145.773 189.388C149.57 185.548 151.469 180.919 151.469 175.5ZM205.394 155.852H175.954V173.324H201.042V177.676H175.954V199.5H171.602V151.5H205.394V155.852Z" fill="white"/>
</svg>
